<svg width="33" height="31" viewBox="0 0 33 31" fill="none" xmlns="http://www.w3.org/2000/svg">
<path d="M14.4739 0.69536C15.0152 0.27428 15.6742 0.0322836 16.3593 0.00300925C17.0445 -0.0262651 17.7217 0.158636 18.2969 0.532013L18.5263 0.69701L32.3596 11.4548C33.5493 12.3805 32.9701 14.2466 31.5363 14.4L31.3449 14.4099H29.6999V27.6097C29.7001 28.4422 29.3857 29.2441 28.8196 29.8545C28.2535 30.465 27.4776 30.8389 26.6474 30.9014L26.3999 30.9096H6.60028C5.76803 30.9095 4.96657 30.5949 4.35646 30.0288C3.74635 29.4628 3.37266 28.6871 3.31024 27.8572L3.30034 27.6097V14.4099H1.65532C0.148897 14.4099 -0.542441 12.5817 0.495391 11.5802L0.640589 11.4548L14.4739 0.69536ZM16.5001 3.30066L5.98154 11.4812C6.35939 11.7865 6.60028 12.2534 6.60028 12.7764V27.6097H11.5502V19.3598C11.5502 18.047 12.0717 16.788 13 15.8597C13.9283 14.9314 15.1873 14.4099 16.5001 14.4099C17.8129 14.4099 19.0719 14.9314 20.0002 15.8597C20.9285 16.788 21.45 18.047 21.45 19.3598V27.6097H26.3999V12.7764C26.3999 12.2534 26.6408 11.7865 27.0187 11.4812L16.5001 3.30066ZM16.5001 17.7099C16.0625 17.7099 15.6428 17.8837 15.3334 18.1931C15.024 18.5026 14.8501 18.9222 14.8501 19.3598V27.6097H18.1501V19.3598C18.1501 18.9222 17.9762 18.5026 17.6668 18.1931C17.3574 17.8837 16.9377 17.7099 16.5001 17.7099Z" fill="#2E2B26"/>
</svg>
