<svg width="14" height="22" viewBox="0 0 14 22" fill="none" xmlns="http://www.w3.org/2000/svg">
<path d="M11.3333 0.166687H2.66667C2.09203 0.166687 1.54093 0.39496 1.1346 0.801289C0.728273 1.20762 0.5 1.75872 0.5 2.33335V19.6667C0.5 20.2413 0.728273 20.7924 1.1346 21.1987C1.54093 21.6051 2.09203 21.8334 2.66667 21.8334H11.3333C11.908 21.8334 12.4591 21.6051 12.8654 21.1987C13.2717 20.7924 13.5 20.2413 13.5 19.6667V2.33335C13.5 1.75872 13.2717 1.20762 12.8654 0.801289C12.4591 0.39496 11.908 0.166687 11.3333 0.166687ZM8.08333 20.75H5.91667V19.6667H8.08333V20.75ZM11.3333 18.5834H2.66667V3.41669H11.3333V18.5834Z" fill="#2E2B26"/>
</svg>
