<svg width="30" height="30" viewBox="0 0 30 30" fill="none" xmlns="http://www.w3.org/2000/svg">
<path d="M1.66663 25.0002C1.66663 23.2321 2.369 21.5364 3.61925 20.2861C4.86949 19.0359 6.56518 18.3335 8.33329 18.3335H21.6666C23.4347 18.3335 25.1304 19.0359 26.3807 20.2861C27.6309 21.5364 28.3333 23.2321 28.3333 25.0002C28.3333 25.8842 27.9821 26.7321 27.357 27.3572C26.7319 27.9823 25.884 28.3335 25 28.3335H4.99996C4.1159 28.3335 3.26806 27.9823 2.64294 27.3572C2.01782 26.7321 1.66663 25.8842 1.66663 25.0002Z" stroke="#2E2B26" stroke-width="2" stroke-linejoin="round"/>
<path d="M15 11.6667C17.7614 11.6667 20 9.42817 20 6.66675C20 3.90532 17.7614 1.66675 15 1.66675C12.2386 1.66675 10 3.90532 10 6.66675C10 9.42817 12.2386 11.6667 15 11.6667Z" stroke="#2E2B26" stroke-width="2"/>
</svg>
