<svg width="19" height="20" viewBox="0 0 19 20" fill="none" xmlns="http://www.w3.org/2000/svg">
<path d="M17.0825 11.895C17.3719 11.6711 17.6061 11.3839 17.7672 11.0554C17.9284 10.7269 18.0122 10.3659 18.0122 10C18.0122 9.63414 17.9284 9.27312 17.7672 8.94464C17.6061 8.61616 17.3719 8.32895 17.0825 8.10501C13.3353 5.20647 9.15151 2.92135 4.68754 1.33501L3.87129 1.04501C2.31129 0.491262 0.662539 1.54626 0.451289 3.15751C-0.138711 7.7001 -0.138711 12.2999 0.451289 16.8425C0.663789 18.4538 2.31129 19.5088 3.87129 18.955L4.68754 18.665C9.15151 17.0787 13.3353 14.7936 17.0825 11.895Z" fill="#F3EBE0"/>
</svg>
